<svg width="15" height="15" viewBox="0 0 15 15" fill="none" xmlns="http://www.w3.org/2000/svg">
<g clip-path="url(#clip0_1_35)">
<path d="M11.4474 3.55263H3.55263V11.4474H11.4474V3.55263Z" fill="white"/>
<path d="M11.4474 15L15 11.4474L13.2237 11.1443L11.4474 11.4474L11.1232 13.0722L11.4474 15Z" fill="#EA4335"/>
<path d="M0 11.4474V13.8158C0 14.4701 0.529934 15 1.18421 15H3.55263L3.91739 13.2237L3.55263 11.4474L1.61714 11.1443L0 11.4474Z" fill="#188038"/>
<path d="M15 3.55263V1.18421C15 0.529934 14.4701 0 13.8158 0H11.4474C11.2312 0.881007 11.1232 1.52936 11.1232 1.94506C11.1232 2.36076 11.2312 2.89662 11.4474 3.55263C12.2331 3.77763 12.8252 3.89012 13.2237 3.89012C13.6222 3.89012 14.2143 3.77763 15 3.55263Z" fill="#1967D2"/>
<path d="M15 3.55263H11.4474V11.4474H15V3.55263Z" fill="#FBBC04"/>
<path d="M11.4474 11.4474H3.55263V15H11.4474V11.4474Z" fill="#34A853"/>
<path d="M11.4474 0H1.18421C0.529934 0 0 0.529934 0 1.18421V11.4474H3.55263V3.55263H11.4474V0Z" fill="#4285F4"/>
<path d="M5.17204 9.67697C4.87697 9.47763 4.6727 9.18651 4.56118 8.80164L5.24605 8.51941C5.30822 8.75625 5.41678 8.9398 5.57171 9.07006C5.72566 9.20033 5.91316 9.26447 6.13224 9.26447C6.35625 9.26447 6.54868 9.19638 6.70954 9.06019C6.87039 8.92401 6.95132 8.75033 6.95132 8.54013C6.95132 8.325 6.86645 8.14934 6.69671 8.01316C6.52697 7.87697 6.31382 7.80888 6.05921 7.80888H5.66349V7.13092H6.01875C6.23783 7.13092 6.42237 7.07171 6.57237 6.95329C6.72237 6.83487 6.79737 6.67302 6.79737 6.46677C6.79737 6.28322 6.73026 6.13717 6.59605 6.02763C6.46184 5.91809 6.29211 5.86283 6.08586 5.86283C5.88454 5.86283 5.72467 5.91612 5.60625 6.02368C5.48791 6.13153 5.39893 6.26771 5.3477 6.41941L4.66974 6.13717C4.75954 5.88256 4.92434 5.65756 5.16612 5.46316C5.40789 5.26875 5.71678 5.17105 6.09178 5.17105C6.36908 5.17105 6.61875 5.22434 6.8398 5.33191C7.06086 5.43947 7.23454 5.58849 7.35987 5.77796C7.4852 5.96842 7.54737 6.18158 7.54737 6.41842C7.54737 6.6602 7.48914 6.86447 7.3727 7.03224C7.25625 7.2 7.11316 7.32829 6.94342 7.41809V7.45855C7.16259 7.54891 7.35297 7.69733 7.49408 7.88783C7.63717 8.08026 7.70921 8.31019 7.70921 8.57862C7.70921 8.84704 7.64112 9.08684 7.50493 9.29704C7.36875 9.50724 7.18026 9.67302 6.94145 9.79342C6.70164 9.91381 6.43224 9.97501 6.13322 9.97501C5.78684 9.97598 5.4671 9.87631 5.17204 9.67697ZM9.37895 6.27829L8.62697 6.82204L8.25099 6.25164L9.6 5.27862H10.1171V9.86842H9.37895V6.27829Z" fill="#4285F4"/>
</g>
<defs>
<clipPath id="clip0_1_35">
<rect width="15" height="15" fill="white"/>
</clipPath>
</defs>
</svg>
