<svg width="14" height="15" viewBox="0 0 14 15" fill="none" xmlns="http://www.w3.org/2000/svg">
<path fill-rule="evenodd" clip-rule="evenodd" d="M8.25 12C8.25 12.8284 7.57843 13.5 6.75 13.5C5.92157 13.5 5.25 12.8284 5.25 12H8.25ZM6.75 0C3.8475 0 1.5 2.685 1.5 6V7.7175L0 12H3.75C3.75 13.6569 5.09315 15 6.75 15C8.40685 15 9.75 13.6569 9.75 12H13.5L12 7.7175V6.2175C12 3.375 10.3425 0.7725 7.9125 0.2175C7.53526 0.0980908 7.14489 0.0250535 6.75 0ZM2.115 10.5L2.9175 8.25L3 7.9725V6C3 3.5175 4.68 1.5 6.75 1.5C7.02048 1.49956 7.28999 1.53231 7.5525 1.5975C9.2325 2.01 10.5 3.9825 10.5 6.18V7.9725L10.5825 8.2125L11.385 10.5H2.115Z" fill="black"/>
</svg>
