<svg width="14" height="14" viewBox="0 0 14 14" fill="none" xmlns="http://www.w3.org/2000/svg">
<path fill-rule="evenodd" clip-rule="evenodd" d="M11.6667 2.33333V11.6667H2.33333V2.33333H11.6667ZM6.2617 4.66667H5.35273L3.62702 9.33333H4.44706L4.77287 8.42104H6.83867L7.15749 9.33333H8.02693L6.2617 4.66667ZM9.48258 4.66667H8.66584V9.33333H9.48258V4.66667ZM5.80033 5.44962L6.61387 7.77777H4.99971L5.80033 5.44962ZM12.4444 9.33333H14V10.8889H12.4444V9.33333ZM3.11111 12.4444H4.66667V14H3.11111V12.4444ZM6.22222 12.4444H7.77778V14H6.22222V12.4444ZM3.11111 0H4.66667V1.55556H3.11111V0ZM9.33333 12.4444H10.8889V14H9.33333V12.4444ZM6.22222 0H7.77778V1.55556H6.22222V0ZM9.33333 0H10.8889V1.55556H9.33333V0ZM12.4444 6.22222H14V7.77778H12.4444V6.22222ZM0 9.33333H1.55556V10.8889H0V9.33333ZM12.4444 3.11111H14V4.66667H12.4444V3.11111ZM0 6.22222H1.55556V7.77778H0V6.22222ZM0 3.11111H1.55556V4.66667H0V3.11111Z" fill="black"/>
</svg>
