<svg width="21" height="15" viewBox="0 0 21 15" fill="none" xmlns="http://www.w3.org/2000/svg">
<path d="M4.5627 15V7.09874L0 3.59325V13.3307C0 14.4436 0.556427 15 1.66928 15" fill="#4285F4"/>
<path d="M4.34013 7.0431L10.0157 11.3276L15.6912 7.0431V1.59012L10.0157 5.8746L4.34013 1.59012" fill="#EA4335"/>
<path d="M15.4687 15V7.09874L20.0314 3.59325V13.3307C20.0314 14.4436 19.4749 15 18.3621 15" fill="#34A853"/>
<path d="M0 3.70454L4.5627 7.21003V1.75704L2.89342 0.477262C1.39107 -0.691234 0 0.477262 0 1.92397" fill="#C5221F"/>
<path d="M20.0314 3.70454L15.4687 7.21003V1.75704L17.1379 0.477262C18.6403 -0.691234 20.0314 0.477262 20.0314 1.92397" fill="#FBBC04"/>
</svg>
